<svg xmlns="http://www.w3.org/2000/svg" width="22.235" height="28.755" viewBox="0 0 22.235 28.755"><defs><style>.a{fill:none;stroke:#fff;stroke-width:1.2px;}.b{fill:#fff;}</style></defs><g transform="translate(0.601 0.6)"><path class="a" d="M292.282-1573.769h-1.962s-1.6.156-1.6,1.549v3.319a1.614,1.614,0,0,0,1.634,1.734,15.391,15.391,0,0,0,1.658,0v-7.474s1.084-4.114,6.182-4.114,5.894,4.114,5.894,4.114v7.474h2.105a1.6,1.6,0,0,0,1.275-1.722c0-1.533-.027-2.01-.027-3.331a1.556,1.556,0,0,0-1.248-1.549h-2.076" transform="translate(-287.561 1578.754)"/><path class="a" d="M462.777-1390.768h2.73a2.179,2.179,0,0,0,2.388-2.245" transform="translate(-450.773 1404.591)"/><circle class="b" cx="2.178" cy="2.178" r="2.178" transform="translate(8.48 11.79)"/><path class="a" d="M275.86-1375s1.73,2.453,1.73,3.166a3.342,3.342,0,0,1-1.333,2.983c-1.369,1.106-3.475.728-4.831,2.324s-1.946,4.549.239,5.215,4.038,1.2,9.181,1.167,6.393-.357,8.895-1.167,1.435-3.922,0-5.484-3.582-1.406-4.635-2.054-1.249-3.274-1.249-3.274" transform="translate(-270.214 1387.701)"/></g></svg>