<svg xmlns="http://www.w3.org/2000/svg" width="37.766" height="40.896" viewBox="0 0 37.766 40.896"><defs><style>.a{fill:none;stroke:#cc240a;stroke-linecap:round;stroke-linejoin:round;stroke-width:3px;}.b{fill:#cc240a;}</style></defs><g transform="translate(1.5)"><path class="a" d="M2369.365,343.915v24.212H2362.4l17.364,13.368c-.013.129,17.4-13.368,17.4-13.368h-7.287V343.915" transform="translate(-2362.401 -342.101)"/><path class="b" d="M15.717,12.777c-2.584-.618-3.415-1.257-3.415-2.253,0-1.142,1.15-1.938,3.073-1.938,2.026,0,2.777.891,2.846,2.2h2.515a4.282,4.282,0,0,0-3.654-3.992V4.5H13.669V6.763c-2.208.44-3.984,1.76-3.984,3.782,0,2.42,2.174,3.625,5.35,4.327,2.846.629,3.415,1.551,3.415,2.525,0,.723-.558,1.875-3.073,1.875-2.345,0-3.267-.964-3.392-2.2H9.48c.137,2.294,2,3.583,4.189,4.013v2.274h3.415V21.106c2.22-.388,3.984-1.572,3.984-3.719C21.067,14.411,18.3,13.4,15.717,12.777Z" transform="translate(2.109 -4.5)"/></g></svg>