<svg xmlns="http://www.w3.org/2000/svg" width="30" height="30" viewBox="0 0 30 30"><defs><style>.a{fill:none;}.b{fill:#fff;}</style></defs><rect class="a" width="30" height="30"/><path class="b" d="M26.765,7.9a23.65,23.65,0,0,0-2.274-2.6,23.653,23.653,0,0,0-2.6-2.274,4.16,4.16,0,0,0-2.371-1.1H6.585A2.089,2.089,0,0,0,4.5,4.014V26.547a2.089,2.089,0,0,0,2.086,2.086H25.779a2.089,2.089,0,0,0,2.086-2.086V10.273a4.159,4.159,0,0,0-1.1-2.371Zm-3.454-1.42A22.762,22.762,0,0,1,25.2,8.6H21.189V4.589A22.739,22.739,0,0,1,23.311,6.482ZM26.2,26.547a.423.423,0,0,1-.417.417H6.585a.423.423,0,0,1-.417-.417V4.014A.423.423,0,0,1,6.585,3.6H19.52V9.439a.835.835,0,0,0,.835.835H26.2Zm-4.173-2.921H10.34a.835.835,0,1,1,0-1.669H22.024a.835.835,0,0,1,0,1.669Zm0-3.338H10.34a.835.835,0,0,1,0-1.669H22.024a.835.835,0,0,1,0,1.669Zm0-3.338H10.34a.835.835,0,0,1,0-1.669H22.024a.835.835,0,0,1,0,1.669Z" transform="translate(-2.557 -0.852)"/></svg>