<svg xmlns="http://www.w3.org/2000/svg" width="18" height="18" viewBox="0 0 18 18"><defs><style>.a{fill:none;}.b{fill:#1f5fcc;}</style></defs><g transform="translate(-368 -559)"><rect class="a" width="18" height="18" transform="translate(368 559)"/><path class="b" d="M17.713,5.473A14.035,14.035,0,0,0,16.363,3.93,14.036,14.036,0,0,0,14.82,2.581a2.469,2.469,0,0,0-1.407-.653H5.737A1.24,1.24,0,0,0,4.5,3.166V16.538a1.24,1.24,0,0,0,1.238,1.238H17.127a1.24,1.24,0,0,0,1.238-1.238V6.88a2.468,2.468,0,0,0-.653-1.407Zm-2.05-.843A13.508,13.508,0,0,1,16.786,5.89H14.4V3.507A13.5,13.5,0,0,1,15.663,4.631Zm1.712,11.907a.251.251,0,0,1-.248.248H5.737a.251.251,0,0,1-.248-.248V3.166a.251.251,0,0,1,.248-.248h7.676V6.385a.5.5,0,0,0,.5.5h3.467ZM14.9,14.8H7.965a.5.5,0,1,1,0-.99H14.9a.5.5,0,0,1,0,.99Zm0-1.981H7.965a.5.5,0,1,1,0-.99H14.9a.5.5,0,0,1,0,.99Zm0-1.981H7.965a.5.5,0,1,1,0-.99H14.9a.5.5,0,0,1,0,.99Z" transform="translate(365.443 558.148)"/></g></svg>