<svg xmlns="http://www.w3.org/2000/svg" width="14.688" height="11.476" viewBox="0 0 14.688 11.476"><defs><style>.a{fill:#fff;}</style></defs><path class="a" d="M0,7.149V6.69A.688.688,0,0,1,.688,6H11.016V4.625a.689.689,0,0,1,1.175-.487l2.295,2.295a.689.689,0,0,1,0,.974L12.191,9.7a.689.689,0,0,1-1.175-.487V7.838H.688A.688.688,0,0,1,0,7.149Zm14,4.36H3.672V10.133A.689.689,0,0,0,2.5,9.646L.2,11.941a.689.689,0,0,0,0,.974L2.5,15.21a.689.689,0,0,0,1.175-.487V13.346H14a.688.688,0,0,0,.688-.688V12.2A.688.688,0,0,0,14,11.51Z" transform="translate(0 -3.936)"/></svg>