<svg xmlns="http://www.w3.org/2000/svg" width="45.427" height="38.148" viewBox="0 0 45.427 38.148"><defs><style>.a,.c{fill:none;stroke:#ff8226;stroke-linecap:round;stroke-linejoin:round;}.b{fill:#ff8226;}.c{stroke-width:3px;}</style></defs><g transform="translate(-25.349 -14.426)"><g transform="translate(40.735 21.89)"><path class="a" d="M2365.313,343.915v10.124H2362.4l7.26,5.59c0,.054,7.277-5.59,7.277-5.59h-3.047V343.915" transform="translate(-2362.401 -343.156)"/><path class="b" d="M12.088,7.961c-1.08-.258-1.428-.526-1.428-.942,0-.478.481-.81,1.285-.81.847,0,1.161.372,1.19.92h1.052a1.79,1.79,0,0,0-1.528-1.669V4.5H11.231v.946c-.923.184-1.666.736-1.666,1.582,0,1.012.909,1.516,2.237,1.809,1.19.263,1.428.648,1.428,1.056,0,.3-.233.784-1.285.784-.98,0-1.366-.4-1.418-.92H9.48a1.913,1.913,0,0,0,1.751,1.678v.951h1.428v-.942c.928-.162,1.666-.657,1.666-1.555C14.325,8.644,13.169,8.219,12.088,7.961Z" transform="translate(-4.634 -4.5)"/></g><g transform="translate(26.849 15.926)"><path class="c" d="M7.243,4.5H41.185a4.085,4.085,0,0,1,4.243,3.905V27.932a4.085,4.085,0,0,1-4.243,3.905H7.243A4.085,4.085,0,0,1,3,27.932V8.405A4.085,4.085,0,0,1,7.243,4.5Z" transform="translate(-3 -4.5)"/><path class="c" d="M12,31.5H40.97" transform="translate(-5.271 3.648)"/><path class="c" d="M18,25.5v7.811" transform="translate(3.214 1.838)"/></g></g></svg>