<svg xmlns="http://www.w3.org/2000/svg" width="33.6" height="38.257" viewBox="0 0 33.6 38.257"><defs><style>.a{fill:#ff8226;stroke:#ff8226;}</style></defs><path class="a" d="M35.563,10.263a32.995,32.995,0,0,0-3.172-3.628,33,33,0,0,0-3.628-3.172c-1.876-1.376-2.787-1.535-3.308-1.535H7.409A2.914,2.914,0,0,0,4.5,4.839V36.274a2.914,2.914,0,0,0,2.911,2.911H34.188A2.914,2.914,0,0,0,37.1,36.274v-22.7c0-.521-.159-1.432-1.535-3.308ZM30.745,8.282a31.757,31.757,0,0,1,2.641,2.961h-5.6v-5.6A31.725,31.725,0,0,1,30.745,8.282ZM34.77,36.274a.59.59,0,0,1-.582.582H7.409a.59.59,0,0,1-.582-.582V4.839a.59.59,0,0,1,.582-.582H25.456v8.15a1.164,1.164,0,0,0,1.164,1.164h8.15ZM28.948,32.2h-16.3a1.164,1.164,0,1,1,0-2.329h16.3a1.164,1.164,0,0,1,0,2.329Zm0-4.657h-16.3a1.164,1.164,0,1,1,0-2.329h16.3a1.164,1.164,0,0,1,0,2.329Zm0-4.657h-16.3a1.164,1.164,0,1,1,0-2.329h16.3a1.164,1.164,0,0,1,0,2.329Z" transform="translate(-3.999 -1.428)"/></svg>