<svg xmlns="http://www.w3.org/2000/svg" width="23.558" height="29.879" viewBox="0 0 23.558 29.879"><defs><style>.a{fill:#fff;}</style></defs><path class="a" d="M76.506,23.778A4.64,4.64,0,0,1,75.1,21.857c-1.211-2.573-1.465-6.2-1.465-8.784,0-.011,0-.022,0-.034a8.479,8.479,0,0,0-4.973-7.689V3.329A3.324,3.324,0,0,0,65.35,0h-.274a3.324,3.324,0,0,0-3.311,3.329V5.351a8.479,8.479,0,0,0-4.973,7.723c0,2.587-.254,6.211-1.465,8.784a4.639,4.639,0,0,1-1.406,1.921.852.852,0,0,0-.466.968.888.888,0,0,0,.875.684h6.393a4.491,4.491,0,0,0,8.981,0H76.1a.888.888,0,0,0,.875-.684A.852.852,0,0,0,76.506,23.778Zm-13-20.45a1.573,1.573,0,0,1,1.567-1.575h.274a1.573,1.573,0,0,1,1.567,1.575V4.783a8.418,8.418,0,0,0-3.408,0V3.329Zm1.7,24.8a2.757,2.757,0,0,1-2.746-2.7h5.492A2.757,2.757,0,0,1,65.213,28.126Zm3.512-4.449H56.317a9.185,9.185,0,0,0,.457-.805c1.169-2.313,1.762-5.61,1.762-9.8a6.677,6.677,0,1,1,13.353,0c0,.011,0,.022,0,.032,0,4.171.6,7.456,1.762,9.763a9.194,9.194,0,0,0,.457.805Z" transform="translate(-53.434 0)"/></svg>