<svg xmlns="http://www.w3.org/2000/svg" width="18" height="18" viewBox="0 0 18 18"><defs><style>.a,.b{fill:none;}.b{stroke:#991b08;stroke-linecap:round;stroke-linejoin:round;stroke-width:1.5px;fill-rule:evenodd;}</style></defs><rect class="a" width="18" height="18"/><g transform="translate(0.33 0.041)"><path class="b" d="M3.71,6.472A5.707,5.707,0,0,1,10.1,3.07a5.838,5.838,0,0,1,4.246,3.649" transform="translate(-0.015)"/><path class="b" d="M3.67,4.58V6.989a.127.127,0,0,0,.127.127H6.206" transform="translate(0 -0.593)"/></g><g transform="translate(18.328 16.719) rotate(180)"><path class="b" d="M3.71,6.472A5.707,5.707,0,0,1,10.1,3.07a5.838,5.838,0,0,1,4.246,3.649" transform="translate(-0.015)"/><path class="b" d="M3.67,4.58V6.989a.127.127,0,0,0,.127.127H6.206" transform="translate(0 -0.593)"/></g></svg>