<svg xmlns="http://www.w3.org/2000/svg" width="18" height="18" viewBox="0 0 18 18"><defs><style>.a{fill:none;}.b{fill:#09cc73;}</style></defs><g transform="translate(-627 -213)"><rect class="a" width="18" height="18" transform="translate(627 213)"/><path class="b" d="M0,7.149V6.69A.688.688,0,0,1,.688,6H11.016V4.625a.689.689,0,0,1,1.175-.487l2.295,2.295a.689.689,0,0,1,0,.974L12.191,9.7a.689.689,0,0,1-1.175-.487V7.838H.688A.688.688,0,0,1,0,7.149Zm14,4.36H3.672V10.133A.689.689,0,0,0,2.5,9.646L.2,11.941a.689.689,0,0,0,0,.974L2.5,15.21a.689.689,0,0,0,1.175-.487V13.346H14a.688.688,0,0,0,.688-.688V12.2A.688.688,0,0,0,14,11.51Z" transform="translate(628.656 212.326)"/></g></svg>