<svg id="Icone_-_Devolução" data-name="Icone - Devolução" xmlns="http://www.w3.org/2000/svg" width="18" height="18" viewBox="0 0 18 18">
  <rect id="Retângulo_307" data-name="Retângulo 307" width="18" height="18" fill="none"/>
  <path id="União_10" data-name="União 10" d="M-4503.687,1029.679v-1.24a2.946,2.946,0,0,1-1.574-.823,2.462,2.462,0,0,1-.736-1.743.6.6,0,0,1,.6-.564h.036a.6.6,0,0,1,.563.634,1.274,1.274,0,0,0,.395.831,2.039,2.039,0,0,0,1.586.529c1.633-.066,1.77-.707,1.79-1.678.011-.557-.729-.823-1.946-1.194a8.293,8.293,0,0,1-1.915-.757,2.1,2.1,0,0,1-1.109-1.829v-.012a2.332,2.332,0,0,1,.684-1.72,2.816,2.816,0,0,1,1.627-.7V1018h1.5v1.432a2.328,2.328,0,0,1,2.2,2.389.6.6,0,0,1-.577.623h-.022a.6.6,0,0,1-.6-.578c-.023-.6-.169-1.242-1.624-1.288a2.358,2.358,0,0,0-1.67.4,1.153,1.153,0,0,0-.313.863c.009.728.827,1.03,2.171,1.44a8.076,8.076,0,0,1,1.785.694,1.845,1.845,0,0,1,1.013,1.673,2.5,2.5,0,0,1-2.359,2.8v1.227Zm8.545-.137h-.053a.738.738,0,0,1-.14-.024h0l-.014,0h-.005l-.009,0-.012,0h0a.753.753,0,0,1-.282-.172l-3.778-3.658a.751.751,0,0,1-.017-1.061.75.75,0,0,1,1.06-.017l2.507,2.427v-7.887a.749.749,0,0,1,.711-.749h.039a.75.75,0,0,1,.75.75v7.887l2.506-2.427a.752.752,0,0,1,1.061.017.751.751,0,0,1-.017,1.061l-3.777,3.658a.756.756,0,0,1-.263.164.753.753,0,0,1-.242.046Z" transform="translate(4507.399 -1015)" fill="#991b08"/>
</svg>
